<?xml version="1.0" encoding="UTF-8" standalone="no"?>
<svg
   xmlns:dc="http://purl.org/dc/elements/1.1/"
   xmlns:cc="http://creativecommons.org/ns#"
   xmlns:rdf="http://www.w3.org/1999/02/22-rdf-syntax-ns#"
   xmlns:svg="http://www.w3.org/2000/svg"
   xmlns="http://www.w3.org/2000/svg"
   xmlns:sodipodi="http://sodipodi.sourceforge.net/DTD/sodipodi-0.dtd"
   xmlns:inkscape="http://www.inkscape.org/namespaces/inkscape"
   x="0"
   y="0"
   style="width: 16px; height: 16px"
   viewBox="0 0 16 16"
   id="svg3003"
   version="1.1"
   inkscape:version="0.48.2 r9819"
   width="100%"
   height="100%"
   sodipodi:docname="favicon-black-bg.svg">
  <metadata
     id="metadata3019">
    <rdf:RDF>
      <cc:Work
         rdf:about="">
        <dc:format>image/svg+xml</dc:format>
        <dc:type
           rdf:resource="http://purl.org/dc/dcmitype/StillImage" />
        <dc:title></dc:title>
      </cc:Work>
    </rdf:RDF>
  </metadata>
  <defs
     id="defs3017" />
  <sodipodi:namedview
     pagecolor="#ffffff"
     bordercolor="#666666"
     borderopacity="1"
     objecttolerance="10"
     gridtolerance="10"
     guidetolerance="10"
     inkscape:pageopacity="0"
     inkscape:pageshadow="2"
     inkscape:window-width="1920"
     inkscape:window-height="1009"
     id="namedview3015"
     showgrid="false"
     inkscape:zoom="47.922891"
     inkscape:cx="4.6711225"
     inkscape:cy="8.0002975"
     inkscape:window-x="-8"
     inkscape:window-y="-8"
     inkscape:window-maximized="1"
     inkscape:current-layer="layer4" />
  <desc
     id="desc3007">Моя эмблема. Сделана на основе буквы &quot;В&quot;</desc>
  <g
     inkscape:groupmode="layer"
     id="layer4"
     inkscape:label="bg"
     style="display:none">
    <rect
       style="fill:#000000;fill-opacity:1;fill-rule:evenodd;stroke:#cccccc;stroke-width:0.1;stroke-linecap:round;stroke-linejoin:round;stroke-miterlimit:2.0999999;stroke-opacity:1;stroke-dasharray:none;stroke-dashoffset:5.99999994"
       id="rect3780"
       width="16.526548"
       height="16.150946"
       x="-0.10433427"
       y="-0.088344924"
       inkscape:export-xdpi="58"
       inkscape:export-ydpi="58" />
  </g>
  <g
     inkscape:groupmode="layer"
     id="layer1"
     inkscape:label="красный">
    <path
       style="fill:#ff0000;fill-opacity:1;stroke:none"
       d="M 0.49977677,0.42033659 C 1.9445018,0.90638383 4.6114756,1.7577753 6.5720316,2.3609542 c 1.751094,0.5387363 4.4717244,0.977538 5.1123814,2.1075522 0.07972,0.1406138 -1.00118,1.3047922 -1.126811,1.1685439 C 9.1448114,4.104865 6.4417572,3.7759565 4.9861505,3.0912941 2.9033183,2.1116085 1.0995815,1.086285 0.49977677,0.42033659 z"
       id="path3021-0"
       inkscape:connector-curvature="0"
       sodipodi:nodetypes="cssssc" />
  </g>
  <g
     inkscape:groupmode="layer"
     id="layer2"
     inkscape:label="белый">
    <path
       style="fill:#ffffff;fill-opacity:1;stroke:#cccccc;stroke-width:0.1;stroke-miterlimit:2.0999999;stroke-opacity:1;stroke-dasharray:none"
       d="M 0.55078461,0.40586609 C 1.6647924,0.28192026 2.7429964,0.16698028 5.1832263,0.11373011 7.3248486,0.0669961 10.095791,0.3261833 10.483407,1.3240082 11.06779,2.8283639 12.73256,3.8741719 12.340556,3.7028293 11.142661,3.1792361 7.7075999,1.8279921 6.6856399,1.57441 5.0811599,1.1762857 1.7348606,0.591877 0.55078461,0.40586609 z"
       id="path3021"
       inkscape:connector-curvature="0"
       sodipodi:nodetypes="cssssc" />
  </g>
  <g
     inkscape:groupmode="layer"
     id="layer3"
     inkscape:label="синий">
    <g
       transform="matrix(0.12,0,0,0.12,0.70880059,0.94794404)"
       id="g3009">
      <circle
         cx="117"
         cy="15"
         r="9.3000002"
         style="fill:#009fff;fill-opacity:1;stroke:none"
         d="m 126.3,15 c 0,5.136248 -4.16375,9.3 -9.3,9.3 -5.13625,0 -9.3,-4.163752 -9.3,-9.3 0,-5.1362483 4.16375,-9.3000002 9.3,-9.3000002 5.13625,0 9.3,4.1637519 9.3,9.3000002 z"
         id="circle3011"
         sodipodi:cx="117"
         sodipodi:cy="15"
         sodipodi:rx="9.3000002"
         sodipodi:ry="9.3000002"
         transform="matrix(0.92520841,0,0,0.92520841,5.9683691,-0.9648116)" />
      <path
         style="fill:#009fff;fill-opacity:1"
         d="M -0.80598689,119.87499 C 3.6388048,113.06508 17.502051,100.12239 24.334647,92.554401 c 6.557266,-7.263024 4.906157,-8.855427 13.91812,-13.036547 8.535281,-3.959962 14.271419,-17.159096 22.438754,-22.380165 0,0 0.671448,-8.251212 10.503661,-10.922074 3.486636,-0.947124 7.777218,-4.920355 12.825459,-13.51503 2.854909,-4.860508 2.762208,-3.845492 -0.06537,-6.633877 C 76.030439,18.251728 70.905338,18.568855 53.458226,13.441047 33.543627,7.5880294 2.0559155,-0.53182882 -2.3684039,-4.861833 32.858381,0.85408656 53.093826,0.76048875 79.194014,9.0060601 90.464574,12.566655 86.3677,13.201258 99.455109,21.527213 c 10.306321,6.556683 6.692701,12.674582 1.737871,17.912796 -6.128464,6.478973 -14.374109,11.137074 -19.347788,16.695562 9.851501,9.506665 16.671748,19.330473 20.130028,24.434985 1.85522,2.73835 1.38545,7.518565 -2.956663,9.130546 -13.687583,5.081434 -28.95001,10.164986 -53.520625,20.826108 2.085048,-3.28814 17.331476,-12.884559 21.025104,-15.303409 4.208481,-2.756012 11.476212,-9.801885 16.36498,-10.956645 3.150257,-0.744111 6.082238,-1.179642 7.385272,-1.60098 -2.221094,-2.477122 -3.804309,-3.1323 -10.470397,-7.486225 C 75.434085,72.326485 72.769994,69.748188 70.367384,67.178393 56.963352,79.16098 45.445372,86.608187 42.555108,88.900661 39.516354,91.310913 24.369995,101.03452 -0.80598689,119.87499 z"
         id="path3013"
         inkscape:connector-curvature="0"
         sodipodi:nodetypes="cssssssscssscsscsscscsc" />
    </g>
  </g>
</svg>
