<?xml version="1.0" encoding="utf-8"?>
<!-- Generator: Adobe Illustrator 19.2.1, SVG Export Plug-In . SVG Version: 6.00 Build 0)  -->
<svg version="1.1" id="Layer_1" xmlns="http://www.w3.org/2000/svg" xmlns:xlink="http://www.w3.org/1999/xlink" x="0px" y="0px"
	 viewBox="0 0 286 232.5" style="enable-background:new 0 0 286 232.5;" xml:space="preserve">
<style type="text/css">
	.st {fill:#eeeeee;}
	.st0{fill:#31A750;}
	.st1{fill:#6EC05D;}
</style>
<path class="st" d="M135.7,49.1v151.7c0,5.6-5.7,10.1-12,10.1s-11.5-4.5-11.5-10.1c0-4-3.7-7.3-8.3-7.3c-4.6,0-8.3,3.3-8.3,7.3
	c0,6.6,2.9,12.8,8.2,17.5c5.3,4.7,12.4,7.2,19.9,7.2c7.5,0,14.5-2.6,19.9-7.3c5.2-4.6,8.1-10.8,8.2-17.3l0,0V49.1H135.7z"/>
<path class="st0" d="M143.4,11.6c-65.2,0-119.1,49.5-127.7,112.1c7.3-2.2,23-8.2,31.8-8.2c23.5,0,41.4,12.3,48.1,24.4l0,0l0,0
	c6.7-12.1,25.3-24.1,48.8-24.1s41.4,12,48.1,24.1l0,0l0,0c0,0,24.1-24.1,47.6-24.1c10.1,0,23.9,5.1,31.9,7.9
	C263.9,60.6,209,11.6,143.4,11.6z"/>
<path class="st1" d="M145.7,11.7h-0.3c-32.2,18.2-49.6,58.1-49.7,128.2l0,0c6.7-12.1,25.3-24.1,48.8-24.1s41.4,12,48.1,24.1
	C192.4,69.8,177.9,31.5,145.7,11.7z"/>
</svg>
